<?xml version="1.0" encoding="UTF-8"?>
<svg id="Layer_2" data-name="Layer 2" xmlns="http://www.w3.org/2000/svg" xmlns:xlink="http://www.w3.org/1999/xlink" viewBox="0 0 1187.67 500.77">
  <defs>
    <style>
      .cls-1 {
        fill: #232120;
      }

      .cls-2 {
        fill: url(#linear-gradient);
        fill-rule: evenodd;
      }
    </style>
    <linearGradient id="linear-gradient" x1="788.07" y1="-85.58" x2="480.32" y2="128.36" gradientUnits="userSpaceOnUse">
      <stop offset="0" stop-color="#a9792b"/>
      <stop offset=".7" stop-color="#f1c896"/>
      <stop offset="1" stop-color="#a9792b"/>
    </linearGradient>
  </defs>
  <g id="Layer_1_Image" data-name="Layer 1 Image">
    <g>
      <g>
        <path class="cls-1" d="M52.47,498.96l.03-101.11h-19.28s-.03,101.11-.03,101.11H0s0-19.37,0-19.37h9.68s.02-74.59.02-74.59l6.51-7.16H5.73s0-19.36,0-19.36l60.11.02c0-.05.51.05,1.54.33.6.16,1.14.38,1.63.65.7.27,1.33.62,1.87,1.06,3.42,2.5,5.12,6.59,5.12,12.29l-.03,106.15h-23.51Z"/>
        <path class="cls-1" d="M94.52,498.97l.03-101.11h-9.35s0-19.36,0-19.36h32.78s-.04,120.48-.04,120.48h-23.43Z"/>
        <path class="cls-1" d="M201.98,499.01h-24.73s-25.77-64.52-25.77-64.52c-2.66-.65-3.99.3-3.99,2.85v.33c0,.76.3,2.31.89,4.64.43,1.79,1.14,4.31,2.11,7.57l13.81,46.45v2.69s-37.01-.01-37.01-.01v-19.36s7.82,0,7.82,0l-6.66-34.49c-.54-2.87-.81-4.85-.81-5.94v-3.17c0-5.37,1.74-9.87,5.21-13.5,3.2-3.42,7.08-5.31,11.63-5.69l-15.85-38.16h25.05s18.29,45.32,18.29,45.32c3.09.16,4.64-1.38,4.64-4.63v-21.31s-7.15,0-7.15,0v-19.36s30.51,0,30.51,0v39.54c-.01,5.91-1.83,10.87-5.47,14.88-3.91,4.23-9.2,6.59-15.87,7.07l23.33,58.82Z"/>
        <path class="cls-1" d="M218.76,441.91v-44.01s-9.34,0-9.34,0v-19.36s32.79.01,32.79.01l-.02,63.37h-23.43Z"/>
        <path class="cls-1" d="M285.68,499.04l.03-101.11h-34.33s0-19.37,0-19.37l47.51.02c0-.05.54.08,1.63.41l3.5,1.71c3.47,2.39,5.2,6.18,5.2,11.39l-.03,106.97h-23.51Z"/>
        <path class="cls-1" d="M318.3,499.05v-19.36s29.13,0,29.13,0l.03-81.59h-28.96s0-19.53,0-19.53h41.81s.54.07,1.63.34c.6.16,1.17.38,1.71.65.7.27,1.35.62,1.95,1.06,3.47,2.44,5.2,6.43,5.2,11.96l-.03,87.12h8.38s0,19.36,0,19.36l-60.85-.02Z"/>
        <path class="cls-1" d="M394.28,499.07l.03-101.11h-9.35s0-19.36,0-19.36h32.78s-.04,120.48-.04,120.48h-23.43Z"/>
        <path class="cls-1" d="M466.03,499.09l.03-94.28,6.27-6.83h-8.62s0-19.36,0-19.36l58.49.02c0-.05.51.05,1.55.33l1.63.65c.7.33,1.33.71,1.87,1.14,3.42,2.55,5.12,6.62,5.12,12.21l-.03,106.15-66.3-.02ZM489.65,397.99l-.03,81.75h19.2s.03-81.58.03-81.58l-19.2-.17Z"/>
        <path class="cls-1" d="M550.81,442.02v-44.01s-9.34,0-9.34,0v-19.36s32.79,0,32.79,0l-.02,63.37h-23.43Z"/>
        <path class="cls-1" d="M654.51,470.19c0,8.03-2.42,14.8-7.25,20.33-5.91,6.83-14.57,10.25-25.95,10.24-11.88,0-20.74-3.4-26.6-10.18-4.66-5.42-6.99-12.23-6.99-20.42l.02-65.32,6.35-6.83h-9.03s0-19.36,0-19.36l69.47.02-.03,91.51ZM611.42,398.03l-.02,75.49c0,2.17.62,3.93,1.87,5.29,1.73,1.79,4.42,2.69,8.05,2.69,6.56,0,9.84-2.71,9.84-8.13l.02-75.33h-19.77Z"/>
        <path class="cls-1" d="M663.7,499.16v-19.2s16.03,0,16.03,0l.03-81.91h-12.04s0-19.37,0-19.37h35.47s-.04,120.48-.04,120.48h-39.45Z"/>
        <path class="cls-1" d="M712.34,499.17v-19.2s16.03,0,16.03,0l.03-81.91h-12.04s0-19.37,0-19.37h35.47s-.04,120.48-.04,120.48h-39.45Z"/>
        <path class="cls-1" d="M770.36,442.09v-44.01s-9.34,0-9.34,0v-19.36s32.79,0,32.79,0l-.02,63.37h-23.43Z"/>
        <path class="cls-1" d="M817.96,398.09h-14.15s0-19.36,0-19.36l61.82.02.13,91.84c0,6.46-1.17,11.88-3.5,16.27-1.9,3.63-4.56,6.53-7.97,8.7-4.01,2.44-8.35,3.66-13.02,3.66h-37.5s0-19.21,0-19.21h32.78c.33,0,.68-.02,1.06-.07.76-.16,1.44-.46,2.03-.89,1.84-1.25,2.77-3.41,2.77-6.51l-.14-74.43h-7c-6.02,0-9.03,5.5-9.03,16.51v8.3s7.56,0,7.56,0v20.82s-30.02,0-30.02,0v-19.12c.06-1.25.12-2.39.17-3.42.27-2.71.79-5.18,1.55-7.4,2.01-5.86,6.16-10.87,12.45-15.04v-.65Z"/>
        <path class="cls-1" d="M941.49,499.24h-17.49s0-19.37,0-19.37h11.63c4.56,0,6.83-2.54,6.84-7.64l.02-74.11h-32.62s.01-43.04.01-43.04h24.49s0,23.68,0,23.68h32.29s-.03,91.85-.03,91.85c0,6.18-1.2,11.47-3.58,15.86-1.95,3.53-4.67,6.37-8.14,8.54-2.55,1.62-5.37,2.82-8.46,3.58-1.08.22-2.14.38-3.17.49l-1.79.16Z"/>
        <path class="cls-1" d="M1050.49,499.28h-24.73s-25.77-64.52-25.77-64.52c-2.66-.65-3.99.3-3.99,2.85v.33c0,.76.3,2.31.89,4.64.43,1.79,1.14,4.31,2.11,7.57l13.81,46.45v2.69s-37.01-.01-37.01-.01v-19.36s7.82,0,7.82,0l-6.66-34.49c-.54-2.87-.81-4.85-.81-5.94v-3.17c0-5.37,1.74-9.87,5.21-13.5,3.2-3.42,7.08-5.31,11.63-5.69l-15.85-38.16h25.05s18.29,45.32,18.29,45.32c3.09.16,4.64-1.38,4.64-4.63v-21.31s-7.15,0-7.15,0v-19.36s30.51,0,30.51,0v39.54c-.01,5.91-1.83,10.87-5.47,14.88-3.91,4.23-9.2,6.59-15.87,7.07l23.33,58.82Z"/>
        <path class="cls-1" d="M1072.89,398.17h-14.15s0-19.37,0-19.37l61.82.02.13,91.84c0,6.45-1.17,11.88-3.5,16.27-1.9,3.63-4.56,6.54-7.97,8.7-4.01,2.44-8.35,3.66-13.02,3.65h-37.5s0-19.21,0-19.21h32.78c.33.01.68-.02,1.06-.07.76-.16,1.44-.46,2.03-.89,1.84-1.25,2.77-3.41,2.77-6.51l-.14-74.43h-7c-6.02,0-9.03,5.5-9.03,16.51v8.3s7.56,0,7.56,0v20.82s-30.02,0-30.02,0v-19.12c.06-1.25.12-2.38.17-3.42.27-2.71.79-5.18,1.55-7.4,2.01-5.86,6.16-10.87,12.45-15.04v-.65Z"/>
        <path class="cls-1" d="M1164.13,499.32l.03-101.11h-34.33s0-19.37,0-19.37l47.51.02c0-.05.54.08,1.63.41l3.5,1.71c3.47,2.39,5.2,6.18,5.2,11.39l-.03,106.97h-23.51Z"/>
      </g>
      <path class="cls-2" d="M484.11,150.77l110.58,110.58V75.39c0-41.62,33.76-75.39,75.38-75.39h245.18l-41.87,41.88h-203.32c-18.5,0-33.5,15.01-33.5,33.51v33.51h169.79l-41.87,41.88h-127.92v127.92l-41.88,41.88-211.67-211.67h115.36c18.5,0,33.5-15.01,33.5-33.51s-14.99-33.51-33.5-33.51h-182.39L274.11,0h224.25c41.63,0,75.39,33.76,75.39,75.39s-33.76,75.39-75.39,75.39h-14.25Z"/>
    </g>
  </g>
</svg>
