<svg preserveAspectRatio="none" width="100%" height="100%" overflow="visible" style="display: block;" viewBox="0 0 26 26" fill="none" xmlns="http://www.w3.org/2000/svg">
<g id="Isolation_Mode" clip-path="url(#clip0_20_68)">
<path id="Vector" d="M13 26C20.1797 26 26 20.1797 26 13C26 5.8203 20.1797 0 13 0C5.8203 0 0 5.8203 0 13C0 20.1797 5.8203 26 13 26Z" fill="var(--fill-0, #42BC74)"/>
<path id="Vector_2" d="M19.9078 18.5218L19.1234 19.3061C19.1234 19.3061 15.8656 22.5639 9.79568 16.4985C3.41378 10.1166 6.67158 6.8543 6.67158 6.8543L7.45595 6.06993C7.78574 5.74014 8.32053 5.74014 8.64587 6.06993L11.4446 8.8687C11.7744 9.19849 11.7744 9.73329 11.4446 10.0586L10.3349 11.1683C10.3349 11.1683 10.9098 12.5944 12.2023 13.8869C13.4902 15.1748 14.8094 15.6383 14.8094 15.6383L15.9191 14.5286C16.2489 14.1988 16.7837 14.1988 17.109 14.5286L19.9078 17.3274C20.2376 17.6572 20.2376 18.192 19.9078 18.5173V18.5218Z" fill="var(--fill-0, white)"/>
</g>
<defs>
<clipPath id="clip0_20_68">
<rect width="26" height="26" fill="white"/>
</clipPath>
</defs>
</svg>
